HIERARCHY
ROOT Hips
{
	OFFSET 0.000000 0.000000 0.000000
	CHANNELS 6 Xposition Yposition Zposition Zrotation Yrotation Xrotation 
	JOINT LHipJoint
	{
		OFFSET 0.000000 0.000000 0.000000
		CHANNELS 3 Zrotation Yrotation Xrotation
		JOINT LeftUpLeg
		{
			OFFSET 1.363060 -1.794630 0.839290
			CHANNELS 3 Zrotation Yrotation Xrotation
			JOINT LeftLeg
			{
				OFFSET 2.448110 -6.726130 0.000000
				CHANNELS 3 Zrotation Yrotation Xrotation
				JOINT LeftFoot
				{
					OFFSET 2.562200 -7.039590 0.000000
					CHANNELS 3 Zrotation Yrotation Xrotation
					JOINT LeftToeBase
					{
						OFFSET 0.157640 -0.433110 2.322550
						CHANNELS 3 Zrotation Yrotation Xrotation
						End Site
						{
							OFFSET 0.000000 0.000000 0.000000
						}
					}
				}
			}
		}
	}
	JOINT RHipJoint
	{
		OFFSET 0.000000 0.000000 0.000000
		CHANNELS 3 Zrotation Yrotation Xrotation
		JOINT RightUpLeg
		{
			OFFSET -1.305520 -1.794630 0.839290
			CHANNELS 3 Zrotation Yrotation Xrotation
			JOINT RightLeg
			{
				OFFSET -2.542530 -6.985550 0.000000
				CHANNELS 3 Zrotation Yrotation Xrotation
				JOINT RightFoot
				{
					OFFSET -2.568260 -7.056230 0.000000
					CHANNELS 3 Zrotation Yrotation Xrotation
					JOINT RightToeBase
					{
						OFFSET -0.164730 -0.452590 2.363150
						CHANNELS 3 Zrotation Yrotation Xrotation
						End Site
						{
							OFFSET 0.000000 0.000000 0.000000
						}
					}
				}
			}
		}
	}
	JOINT LowerBack
	{
		OFFSET 0.000000 0.000000 0.000000
		CHANNELS 3 Zrotation Yrotation Xrotation
		JOINT Spine
		{
			OFFSET 0.028270 2.035590 -0.193380
			CHANNELS 3 Zrotation Yrotation Xrotation
			JOINT Spine1
			{
				OFFSET 0.056720 2.048850 -0.042750
				CHANNELS 3 Zrotation Yrotation Xrotation
				JOINT Neck
				{
					OFFSET 0.000000 0.000000 0.000000
					CHANNELS 3 Zrotation Yrotation Xrotation
					JOINT Neck1
					{
						OFFSET -0.054170 1.746240 0.172020
						CHANNELS 3 Zrotation Yrotation Xrotation
						JOINT Head
						{
							OFFSET 0.104070 1.761360 -0.123970
							CHANNELS 3 Zrotation Yrotation Xrotation
							End Site
							{
								OFFSET 0.000000 0.000000 0.000000
							}
						}
					}
				}
				JOINT LeftShoulder
				{
					OFFSET 0.000000 0.000000 0.000000
					CHANNELS 3 Zrotation Yrotation Xrotation
					JOINT LeftArm
					{
						OFFSET 3.362410 1.200890 -0.311210
						CHANNELS 3 Zrotation Yrotation Xrotation
						JOINT LeftForeArm
						{
							OFFSET 4.983000 -0.000000 -0.000000
							CHANNELS 3 Zrotation Yrotation Xrotation
							JOINT LeftHand
							{
								OFFSET 3.483560 -0.000000 -0.000000
								CHANNELS 3 Zrotation Yrotation Xrotation
								JOINT LeftFingerBase
								{
									OFFSET 0.000000 0.000000 0.000000
									CHANNELS 3 Zrotation Yrotation Xrotation
									JOINT LeftHandIndex1
									{
										OFFSET 0.715260 -0.000000 -0.000000
										CHANNELS 3 Zrotation Yrotation Xrotation
										End Site
										{
											OFFSET 0.000000 0.000000 0.000000
										}
									}
								}
								JOINT LThumb
								{
									OFFSET 0.000000 0.000000 0.000000
									CHANNELS 3 Zrotation Yrotation Xrotation
									End Site
									{
										OFFSET 0.000000 0.000000 0.000000
									}
								}
							}
						}
					}
				}
				JOINT RightShoulder
				{
					OFFSET 0.000000 0.000000 0.000000
					CHANNELS 3 Zrotation Yrotation Xrotation
					JOINT RightArm
					{
						OFFSET -3.136600 1.374050 -0.404650
						CHANNELS 3 Zrotation Yrotation Xrotation
						JOINT RightForeArm
						{
							OFFSET -5.241900 -0.000000 -0.000000
							CHANNELS 3 Zrotation Yrotation Xrotation
							JOINT RightHand
							{
								OFFSET -3.444170 -0.000000 -0.000000
								CHANNELS 3 Zrotation Yrotation Xrotation
								JOINT RightFingerBase
								{
									OFFSET 0.000000 0.000000 0.000000
									CHANNELS 3 Zrotation Yrotation Xrotation
									JOINT RightHandIndex1
									{
										OFFSET -0.622530 -0.000000 -0.000000
										CHANNELS 3 Zrotation Yrotation Xrotation
										End Site
										{
											OFFSET 0.000000 0.000000 0.000000
										}
									}
								}
								JOINT RThumb
								{
									OFFSET 0.000000 0.000000 0.000000
									CHANNELS 3 Zrotation Yrotation Xrotation
									End Site
									{
										OFFSET 0.000000 0.000000 0.000000
									}
								}
							}
						}
					}
				}
			}
		}
	}
}
MOTION
Frames: 8
Frame Time: 0.008333
3.339966 15.262115 0.779597 97.360778 -82.231004 -61.288370 -10.383817 -2.101570 -2.393645 -22.127830 -4.086408 -73.851781 1.702171 6.403318 87.427287 4.878813 21.020828 -29.248711 -7.474200 0.000000 -0.670000 8.483032 0.806638 -3.630006 11.279124 -9.695245 -58.479254 1.553200 -5.865480 67.614814 -3.980661 -8.512880 -37.749694 5.250000 -0.000000 -23.679400 5.512308 -0.830161 8.323268 1.093826 -0.792185 -1.136789 -2.554188 -0.837646 -0.381275 5.429506 -7.900803 -6.122475 -0.513055 -0.031478 -0.073144 0.000000 0.000000 0.000000 8.989567 7.395171 2.731734 -68.444376 15.847112 29.621155 -0.759172 -73.367529 0.015972 -7.459468 7.143982 -0.465670 0.060421 0.063693 -0.000000 0.000000 0.000000 0.000000 0.000000 0.000000 0.000000 -2.265147 -2.454337 -0.157833 64.131660 11.739298 11.323077 0.046769 87.396766 -0.047212 -7.859109 1.475389 -0.129519 0.151518 -0.385357 0.000000 0.000000 0.000000 0.000000 0.000000 0.000000 0.000000 
3.147816 15.282476 0.767873 101.494782 -82.235870 -65.118817 -10.080843 -2.071768 -2.206032 -22.537953 -4.969996 -76.235982 1.465577 6.473542 85.687583 4.861070 20.238839 -29.174179 -7.157900 -0.000000 -1.751000 8.491320 0.852330 -3.784590 11.101429 -9.750309 -57.415627 1.639910 -5.734640 66.827481 -3.940419 -8.364331 -37.622357 5.172300 0.000000 -25.199999 4.824981 -0.625230 8.420336 0.968624 -0.564038 -1.100301 -2.421466 -0.608097 -0.329070 5.214616 -7.871507 -6.006006 -0.377471 -0.023241 -0.044379 0.000000 0.000000 0.000000 8.678209 7.823527 2.766370 -68.287999 17.038757 30.482023 -0.778696 -72.980651 0.014920 -7.492132 7.232756 -0.474303 0.061402 0.054150 -0.000000 0.000000 0.000000 0.000000 0.000000 0.000000 0.000000 -3.056130 -2.352375 -0.251214 63.096410 12.819095 12.029233 -0.003546 89.117881 -0.044709 -7.362319 1.747113 -0.139926 0.147438 -0.396251 0.000000 0.000000 0.000000 0.000000 0.000000 0.000000 0.000000 
2.951726 15.299812 0.757850 105.849217 -82.249983 -69.162607 -9.780314 -1.994341 -1.987123 -22.825805 -5.831515 -78.488424 1.178834 6.517388 83.604012 4.814834 19.294660 -28.991761 -6.755500 -0.000000 -2.845000 8.510418 0.899227 -3.935475 10.935155 -9.792305 -56.345221 1.727639 -5.602891 66.037115 -3.880749 -8.137177 -37.444874 5.053300 -0.000000 -26.859000 4.157762 -0.414454 8.483375 0.848641 -0.331109 -1.071063 -2.291162 -0.373715 -0.273152 5.006675 -7.849803 -5.905209 -0.244934 -0.015050 -0.019231 0.000000 0.000000 0.000000 8.371981 8.317461 2.791925 -68.076552 18.249715 31.354035 -0.791168 -72.748536 0.014098 -7.555203 7.275868 -0.481938 0.063383 0.045637 -0.000000 0.000000 0.000000 0.000000 0.000000 0.000000 0.000000 -3.830879 -2.259560 -0.337736 61.972049 13.807073 12.568527 179.941217 89.118818 179.957447 -6.931871 1.966431 -0.145934 0.144241 -0.406540 0.000000 0.000000 0.000000 0.000000 0.000000 0.000000 0.000000 
2.751610 15.314157 0.749466 110.349517 -82.274094 -73.348725 -9.483891 -1.871447 -1.738114 -22.995274 -6.659577 -80.597986 0.844420 6.531916 81.188134 4.737858 18.193233 -28.691593 -6.273700 -0.000000 -4.057199 8.544406 0.946293 -4.084090 10.780286 -9.828880 -55.259208 1.817793 -5.471355 65.239143 -3.801129 -7.828874 -37.219396 4.893000 0.000000 -28.667500 3.521223 -0.200669 8.514341 0.736405 -0.095762 -1.049154 -2.163219 -0.136890 -0.215677 4.807629 -7.832366 -5.821057 -0.115240 -0.006850 0.001978 0.000000 0.000000 0.000000 8.080123 8.869620 2.809336 -67.826218 19.468134 32.232573 -0.797804 -72.647369 0.013457 -7.643846 7.274709 -0.488177 0.066196 0.038146 -0.000000 0.000000 0.000000 0.000000 0.000000 0.000000 0.000000 -4.588202 -2.172855 -0.417696 60.769225 14.694127 12.943122 179.882339 87.333175 179.959163 -6.576146 2.117369 -0.147945 0.142044 -0.415901 -0.000000 0.000000 0.000000 0.000000 0.000000 0.000000 0.000000 
2.554611 15.328533 0.732363 122.639229 -82.046120 -85.418840 -9.095506 -1.469796 -1.719134 -23.475524 -6.493543 -82.548447 0.403093 6.632962 78.450328 4.623561 16.881307 -28.459139 -5.783401 0.000000 -5.404501 8.727006 1.220933 -4.099609 10.214300 -9.066381 -53.954644 1.815074 -5.222818 64.517472 -3.696331 -7.491479 -36.882977 4.695500 0.000000 -30.692000 2.412312 0.277141 8.743166 0.506765 0.416810 -0.986854 -2.060566 0.379296 -0.173207 4.693826 -7.815418 -5.747569 0.010206 0.001516 0.016976 0.000000 0.000000 0.000000 7.949152 9.588770 2.824393 -67.548097 20.658641 33.063513 -0.798057 -72.657752 0.012854 -7.754634 7.233114 -0.493230 0.070662 0.030007 -0.000000 0.000000 0.000000 0.000000 0.000000 0.000000 0.000000 -5.208518 -1.946947 -0.469443 59.555722 15.602391 13.137468 179.822964 85.592961 179.960222 -6.293829 2.192764 -0.146453 0.140654 -0.425900 -0.000000 0.000000 0.000000 0.000000 0.000000 0.000000 0.000000 
2.346562 15.337369 0.726927 126.797319 -82.076795 -89.276321 -8.788117 -1.285906 -1.410716 -23.429286 -7.241896 -84.326972 -0.023011 6.568883 75.421774 4.489101 15.520169 -27.976294 -5.206800 -0.000000 -7.005700 8.827166 1.253068 -4.245167 10.101369 -9.131966 -52.810642 1.918392 -5.107029 63.678952 -3.582445 -7.041461 -36.595709 4.470400 -0.000000 -32.646800 1.915079 0.477197 8.707997 0.427733 0.639247 -0.982462 -1.941357 0.603035 -0.118550 4.520920 -7.805684 -5.698886 0.132577 0.009695 0.029803 0.000000 0.000000 0.000000 7.706393 10.212274 2.828496 -67.277109 21.873537 33.915256 -0.796274 -72.754609 0.012538 -7.888477 7.155436 -0.496969 0.074889 0.024587 -0.000000 0.000000 0.000000 0.000000 0.000000 0.000000 0.000000 -5.916619 -1.877221 -0.535547 58.228273 16.278123 13.203154 179.761639 83.825118 179.961099 -6.071033 2.195188 -0.141869 0.140166 -0.432763 -0.000000 0.000000 0.000000 0.000000 0.000000 0.000000 0.000000 
2.134606 15.343819 0.722708 130.827232 -82.127388 -93.028085 -8.496218 -1.080420 -1.078848 -23.304721 -7.936576 -85.889173 -0.495744 6.462079 72.078219 4.331760 14.074949 -27.447166 -4.625999 0.000000 -8.912900 8.941040 1.273528 -4.399938 9.996291 -9.231537 -51.606749 2.029267 -4.994732 62.805697 -3.456440 -6.539743 -36.290494 4.224400 -0.000000 -34.597800 1.464345 0.665987 8.658025 0.359055 0.850743 -0.983019 -1.827074 0.815886 -0.067901 4.367654 -7.800389 -5.667589 0.249774 0.017794 0.038256 0.000000 0.000000 0.000000 7.496646 10.849273 2.827297 -67.016799 23.079378 34.731160 -0.791530 -72.921253 0.012328 -8.040109 7.047106 -0.499410 0.079629 0.020012 -0.000000 0.000000 0.000000 0.000000 0.000000 0.000000 0.000000 -6.584266 -1.817262 -0.593190 56.858943 16.851454 13.133550 179.701887 82.099718 179.961681 -5.893275 2.134077 -0.134887 0.140155 -0.438256 -0.000000 0.000000 0.000000 0.000000 0.000000 0.000000 0.000000 
1.918709 15.348102 0.719543 134.689215 -82.200906 -96.644309 -8.222473 -0.860981 -0.725686 -23.117991 -8.572526 -87.201574 -1.015871 6.304750 68.418086 4.157151 12.578010 -26.911639 -4.067000 -0.000000 -11.174599 9.066508 1.280562 -4.569019 9.896583 -9.376622 -50.323134 2.147829 -4.884993 61.884833 -3.322316 -6.006982 -35.968792 3.966600 -0.000000 -36.548200 1.059094 0.840903 8.600554 0.299884 1.048565 -0.987099 -1.719170 1.015134 -0.021926 4.237004 -7.800778 -5.652571 0.360577 0.025720 0.042546 0.000000 0.000000 0.000000 7.323226 11.486698 2.821434 -66.780449 24.270968 35.498222 -0.784580 -73.140067 0.012197 -8.205638 6.913725 -0.500552 0.084776 0.016185 -0.000000 0.000000 0.000000 0.000000 0.000000 0.000000 0.000000 -7.202024 -1.769031 -0.641784 55.463195 17.328459 12.944310 179.645037 80.438282 179.962095 -5.743088 2.025640 -0.126209 0.140286 -0.442472 -0.000000 0.000000 0.000000 0.000000 0.000000 0.000000 0.000000 
